<svg xmlns="http://www.w3.org/2000/svg" width="100" height="100" viewBox="0 0 100 100">
  <defs>
    <linearGradient id="miku-gradient" x1="0%" y1="0%" x2="100%" y2="100%">
      <stop offset="0%" style="stop-color:#00d9d9;stop-opacity:1" />
      <stop offset="50%" style="stop-color:#39c5bb;stop-opacity:1" />
      <stop offset="100%" style="stop-color:#ff69b4;stop-opacity:0.3" />
    </linearGradient>
  </defs>

  <path
    fill="url(#miku-gradient)"
    stroke="#ff69b4"
    stroke-width="0.5"
    d="M96.64 56.72c-3.18-6.34-6.04-13.9-7.46-19.72-.21-.87-.36-1.8-.53-2.88-.42-2.65-.95-5.95-2.81-10.52-1.15-2.82-4.4-7.12-8.6-7.78l-2.51-7.26c-.11-.26-.33-.46-.6-.53l-3.46-.87c-.01 0-.03 0-.04-.01-.02 0-.04-.01-.06-.01h-.05-.06-.05-.05c-.02 0-.04.01-.05.01-.02 0-.04.01-.05.01-.02 0-.03.01-.05.02s-.03.01-.05.02-.03.02-.05.02c-.02.01-.03.02-.05.03-.03.01-.05.02-.06.03-.02.01-.03.02-.05.03-.01.01-.03.02-.04.04-.01.01-.02.02-.03.02l-4.97 4.85s-.01.01-.01.02c-.01.01-.02.02-.02.03-.02.02-.04.04-.05.07-.01.01-.01.02-.02.03-.02.03-.04.06-.06.1-.02.03-.03.07-.04.1 0 .01-.01.02-.01.03-.01.03-.01.05-.02.08 0 .01 0 .02-.01.03-.01.04-.01.08-.01.11v.09c0 .03 0 .04.01.05.01.03.01.06.02.09l.79 2.55c-1.62-1.26-3.47-2.31-5.58-3.02-2.87-.96-5.94-1.28-9.14-.95-3.59-.5-10.16-1.39-15.84 2.33-.22.14-.43.29-.65.44l.23-1.38c0-.04.01-.06.01-.09v-.06-.08-.03c0-.03-.01-.07-.02-.1-.01-.05-.02-.08-.04-.11 0-.01-.01-.02-.01-.03-.01-.02-.02-.05-.04-.07-.01-.01-.01-.02-.02-.03-.01-.02-.03-.04-.05-.06-.01-.01-.01-.02-.02-.02-.02-.03-.05-.05-.07-.07l-5.18-4.63c-.01-.01-.02-.01-.03-.02-.02-.03-.03-.04-.05-.05s-.03-.02-.05-.03-.03-.02-.05-.03-.03-.02-.05-.02c-.02-.01-.03-.01-.05-.02s-.04-.01-.05-.02c-.02 0-.03-.01-.05-.01s-.04-.01-.06-.01-.03-.01-.05-.01h-.06-.05c-.02 0-.04 0-.06.01-.02 0-.03 0-.05.01-.02 0-.04.01-.06.01-.01 0-.03.01-.04.01l-3.42 1.02a.83.83 0 0 0-.56.56l-2.06 6.92c-4.49 1.01-7.67 6.51-8.58 8.73-1.86 4.57-2.39 7.86-2.81 10.52-.17 1.08-.32 2.01-.53 2.88-1.65 6.72-4.17 13.72-6.92 19.22-.1.2-.12.43-.04.65 2.31 6.72 4.89 10.62 8.28 15.38a.83.83 0 0 0 .77.35.83.83 0 0 0 .68-.5c.49-1.15.6-1.56.85-2.48l.26-.97-.04 1.27c-.04 1.69-.08 3.03-.44 4.57-.06.27.01.56.21.77l2.07 2.19a.83.83 0 0 0 .61.26c.06 0 .12-.01.18-.02a.82.82 0 0 0 .61-.54c2.43-7.01 2.58-11.98 2.73-16.80.13-4.11.25-8 1.7-13.09a135.84 135.84 0 0 1 2-6.42c-.02.71-.02 1.42 0 2.13l.29 7.92a8.31 8.31 0 0 1-.29 2.51c-.23.83-.55 1.63-.94 2.4-.58 1.14-1.32 2.19-2.19 3.13-.23.25-.29.61-.15.92s.46.5.8.48c.74-.04 2.18-.26 3.46-1.35.15-.13.3-.27.44-.41.46.91 1.14 1.9 2 3.16l.1.15c.75 1.1 1.6 1.9 2.45 2.47-.05 1.49.61 2.95 1.8 3.87.83.64 1.83.96 2.84.96a4.48 4.48 0 0 0 .89-.09l.01.15c.02.22.13.42.3.56a.86.86 0 0 0 .53.19h.08l3.03-.3a.84.84 0 0 0 .75-.91l-.17-1.7c-.02-.22-.13-.42-.3-.56s-.39-.21-.61-.19l-3.03.3a.84.84 0 0 0-.75.91l.02.16c-.95.22-1.96.01-2.74-.59-.64-.5-1.07-1.21-1.21-1.99a8.66 8.66 0 0 0 4.17.6c.28-.03.52-.2.65-.45a.85.85 0 0 0-.01-.79c-.31-.55-.58-1.07-.84-1.57.92.96 1.95 1.81 3.09 2.53l3.34 2.12c-.02.64-.05 1.69-.15 2.89l-.79-.59a.97.97 0 0 0-.87-.15c-.3.09-.53.32-.63.62l-1.18 3.54-2.34 2.34a.97.97 0 0 0-.14 1.2c-.07.08-.13.16-.17.25-.66.43-3.15 1.21-4.83 1.74-4.76 1.5-6.32 2.08-6.6 3.25-.11.46.03.95.37 1.30 1.36 1.36 13.7 7.84 25.29 7.84.19 0 .37 0 .56-.01 10.57-.19 22.17-5.06 25.7-7.73.27-.21.44-.53.44-.87.01-.34-.15-.67-.41-.88-1.41-1.14-3.63-1.9-5.98-2.69-1.98-.67-4.02-1.37-5.15-2.21a.97.97 0 0 0-.15-1.18l-2.34-2.34-1.18-3.54c-.1-.3-.33-.53-.63-.62s-.62-.04-.87.15l-.83.63c-.07-1.19-.10-2.22-.10-2.74l3.64-2.32c1.29-.82 2.39-1.82 3.33-3.05-.27.79-.60 1.61-1.01 2.54a.82.82 0 0 0 .06.79c.15.24.42.38.7.38 1.08 0 4.82-.28 7.36-3.9a15.69 15.69 0 0 0 1.83-3.43c.10.14.21.27.32.40 1.25 1.44 2.77 2.07 3.82 2.34.35.09.72-.06.92-.36.19-.31.17-.70-.07-.98-.89-1.05-1.63-2.22-2.21-3.47-.66-1.42-1.10-2.93-1.31-4.49V38.2c1.41 5.08 2.49 13.09 3.61 21.44.86 6.40 1.75 13.01 2.86 18.82a.81.81 0 0 0 .58.64c.08.02.16.03.24.03.22 0 .44-.09.6-.26l2.43-2.54c.20-.20.27-.49.21-.77-.52-2.18-.89-4.40-1.11-6.63a37.61 37.61 0 0 0 1.65 4.60.83.83 0 0 0 .68.5.84.84 0 0 0 .77-.35c3.53-4.96 5.98-9.84 8.20-16.31.02-.21.01-.45-.09-.65zM69.37 19.14l-1.25-5.03 2.56-2.83 1.76 5.33c-1.18.59-2.24 1.45-3.07 2.53zm3.60-.92l2.64 8-1.45 1.74c-.90-2.26-2.16-4.82-3.87-7.24a7.36 7.36 0 0 1 2.68-2.50zM29.08 19c-.63-.81-1.41-1.47-2.20-1.98l1.54-5.44 2.68 2.71-.67 3.32c-.46.45-.91.91-1.35 1.39zm-2.13 10.12l-1.07-.95c.83-.97 1.65-1.83 2.28-2.35.08-.07.16-.13.25-.20l-1.46 3.50zm-.54-10.41c.56.41 1.11.93 1.54 1.56-1.15 1.33-2.21 2.73-3.14 4.10l1.60-5.66zm-6.23 29.16c-1.51 5.29-1.64 9.46-1.76 13.50-.14 4.38-.27 8.90-2.21 14.99l-.81-.86c.31-1.52.35-2.84.39-4.47.02-.83.04-1.78.11-2.86a52.74 52.74 0 0 0-.29-9.65.83.83 0 0 0-.88-.73.84.84 0 0 0-.78.84c.04 3.60-.43 7.17-1.39 10.59l-.28 1.05-.22.81c-2.89-4.12-5.03-7.61-7.04-13.35 2.75-5.55 5.25-12.55 6.90-19.25.23-.94.39-1.95.56-3.01.41-2.57.92-5.76 2.71-10.15.69-1.69 3.15-6.06 6.46-7.43l-2.71 9.08c-.02.04-.04.09-.05.13a.82.82 0 0 0 .27.88l2.45 2.01c-.68 1.53-1.10 2.87-1.17 3.87a.83.83 0 0 0 .76.89.83.83 0 0 0 .90-.75c.05-.50.56-1.46 1.29-2.55l1.93 1.58c-1.99 4.84-3.71 9.82-5.14 14.84zm19.80-8.50c.64 2 1.49 3.75 2.43 5.27h-6.77c.85-1.01 1.64-2.07 2.35-3.18.63-.99 1.20-2.02 1.71-3.07.08.32.18.65.28.98zm13.37-2.15l-.10-1.68a37.79 37.79 0 0 0 2.97 4.04c1.58 1.86 3.34 3.55 5.25 5.06h-7.29c-.38-2.46-.66-4.94-.83-7.42zM39.50 76.16a1.02 1.02 0 0 0 .24-.38l.82-2.47 8.24 6.18a65.07 65.07 0 0 1-1.75 2.78c-1.47 2.20-2.31 3.08-2.72 3.42-1.45-2.28-5.12-6.13-6.66-7.71l1.83-1.82zm-12.72 7.93c1.12-.47 3-1.06 4.37-1.49 3.51-1.10 5.25-1.69 5.92-2.45 2.09 2.19 5.12 5.50 5.88 7.02a1.14 1.14 0 0 0 .18.25 1.36 1.36 0 0 0 .98.41c.07 0 .14 0 .20-.01.40-.05.91-.26 1.71-1.06l.80 1.60c.10.20.28.35.49.42-.02.13-.06.27-.12.46-.15.46-.38.91-.58 1.25-4.68-.43-9.19-1.80-12.41-3-3.44-1.27-6.07-2.60-7.42-3.40zm46.26.18c-3.81 2.21-11.74 5.27-19.54 6.14a6.59 6.59 0 0 1-.40-.95 5.91 5.91 0 0 1-.19-.69c.18-.08.33-.21.43-.39l.80-1.60c.79.80 1.31 1.00 1.71 1.06a1.41 1.41 0 0 0 .20.01c.37 0 .72-.14.98-.41.07-.07.14-.16.18-.25.77-1.53 3.84-4.90 5.94-7.09 1.41 1.14 3.63 1.90 5.98 2.69 1.39.47 2.80.95 3.91 1.48zM59.61 73.31l.82 2.47a1.02 1.02 0 0 0 .24.38l1.82 1.82c-1.54 1.57-5.21 5.42-6.66 7.71-.41-.34-1.24-1.22-2.72-3.42a65.07 65.07 0 0 1-1.75-2.78l8.25-6.18zm-2.78-.36l-6.75 5.06-6.81-5.11c.12-1.14.18-2.20.22-3.05l2.94 1.87c1.15.73 2.47 1.10 3.79 1.10s2.64-.37 3.79-1.10l2.64-1.68.18 2.91zm4.20-8.32l-8.20 5.22c-1.58 1.00-3.62 1.00-5.20 0l-8.18-5.21c-2.67-1.70-4.69-4.21-5.78-7.15h32.46c-1.14 3.41-2.73 5.63-5.10 7.14zm15.09-5.43l-.04-.04a5.52 5.52 0 0 1-1.02-1.72c-.13-.34-.47-.56-.83-.54a.83.83 0 0 0-.76.63c-.43 1.73-1.16 3.34-2.17 4.78-1.45 2.06-3.35 2.80-4.68 3.05 1.06-2.64 1.44-4.64 1.64-7.25.07-.20.13-.41.20-.62h1.60c.38 0 .70-.31.70-.70V45.34c0-.38-.31-.70-.70-.70h-2.05c-.58-5.04-1.70-10.04-3.36-14.96a.83.83 0 0 0-1.58.54c1.60 4.74 2.69 9.56 3.26 14.42h-2.05c-2.53-1.75-4.80-3.80-6.79-6.14-1.68-1.97-3.13-4.14-4.34-6.45a84.54 84.54 0 0 1 .73-11.58.97.97 0 0 0-.84-1.09c-.54-.07-1.02.30-1.09.84a86.30 86.30 0 0 0-.55 17.15 85.51 85.51 0 0 0 .81 7.29h-2.87a15.22 15.22 0 0 1-1.58-3.87c-.12-.46-.56-.77-1.03-.73-.48.04-.85.43-.88.91a22.86 22.86 0 0 0 .05 3.70h-1.16c-1.13-1.62-2.17-3.57-2.90-5.87-2.56-8.02.31-14.97 1.66-17.58.25-.48.06-1.07-.42-1.31-.48-.25-1.07-.06-1.31.42-1.24 2.40-3.67 8.20-2.66 15.23-.67 1.76-1.52 3.45-2.52 5.03-.93 1.46-1.99 2.82-3.17 4.08h-.93a76.44 76.44 0 0 1 2.35-15.47c.12-.45-.15-.90-.60-1.02s-.90.15-1.02.60c-1.35 5.21-2.15 10.53-2.41 15.89h-2.69c-.38 0-.70.31-.70.70v11.46c0 .38.31.70.70.70h3.14c.43 2.69 1.21 4.94 2.63 7.67-.76-.07-1.73-.28-2.71-.82-.09-.17-.25-.31-.45-.35-.05-.01-.10-.02-.14-.02-.66-.46-1.31-1.09-1.89-1.95l-.10-.15c-1.26-1.84-2.09-3.06-2.35-4.17a.84.84 0 0 0-1.57-.18 3.97 3.97 0 0 1-.98 1.27c.23-.38.45-.76.65-1.16a14.52 14.52 0 0 0 1.05-2.70 9.80 9.80 0 0 0 .35-3.03l-.29-7.92c-.15-4.22.59-8.34 2.21-12.24l3.44-8.27a.85.85 0 0 0-.24-.97.84.84 0 0 0-1.00-.04c-.95.65-1.88 1.35-2.77 2.07-.29.24-.64.56-1.02.94l.27-.40c1.02-1.47 2.10-2.86 3.22-4.12.03-.03.05-.06.08-.09 2.01-2.27 4.12-4.16 6.19-5.51 5.22-3.41 11.45-2.53 14.80-2.06a.74.74 0 0 0 .21 0c2.99-.33 5.85-.04 8.53.86 2.87.96 5.22 2.63 7.15 4.60.04.05.09.10.14.14.48.50.93 1.02 1.36 1.55.03.06.08.11.12.15.15.19.29.38.43.57.04.06.08.12.13.18 3.44 4.71 5.04 10.16 5.59 12.46v19.53a.41.41 0 0 0 .01.11 17.21 17.21 0 0 0 1.46 5.03c.10.21.22.45.35.69zm11.87 12.25c-.42-1.09-.78-2.19-1.09-3.31-.96-3.42-1.42-6.98-1.39-10.59a.84.84 0 0 0-.78-.84.83.83 0 0 0-.88.73 52.74 52.74 0 0 0-.29 9.65 52.97 52.97 0 0 0 1.21 8.40l-.99 1.04c-.96-5.37-1.77-11.34-2.55-17.13-1.51-11.24-2.95-21.86-5.32-26.01-.10-.42-.23-.93-.40-1.52l5.16-4.61a.83.83 0 0 0 .23-.89c-.02-.05-.04-.09-.06-.13l-2.96-8.55c3.20 1.03 5.62 4.63 6.40 6.54 1.79 4.39 2.30 7.58 2.71 10.15.17 1.07.33 2.08.56 3.01 1.43 5.84 4.27 13.38 7.44 19.75-1.95 5.62-4.09 9.99-7.00 14.31z"/>
</svg>
