<svg xmlns="http://www.w3.org/2000/svg" width="16" height="16" viewBox="0 0 16 16">
  <defs>
    <linearGradient id="orangeGradient" x1="0%" y1="0%" x2="100%" y2="100%">
      <stop offset="0%" style="stop-color:#F9A74A;stop-opacity:1" />
      <stop offset="100%" style="stop-color:#F87313;stop-opacity:1" />
    </linearGradient>
  </defs>

  <rect width="16" height="16" rx="5.0" fill="url(#orangeGradient)"/>

  <path fill="#ffffff" d="M10.86,7.74a2.79,2.79,0,0,1-1.66,5H5.51c-.65,0-.87-.21-.88-.88,0-1.29,0-2.58,0-3.87,0-.43,0-.85,0-1.28,0-.65.32-.88,1.07-.86s.85.24.85.87c0,1.23,0,2.46,0,3.69,0,.33.09.45.42.44.62,0,1.24,0,1.87,0A1,1,0,0,0,9.93,9.78a1.08,1.08,0,0,0-1.14-1H8.57c-1,0-1.17-.14-1.14-1.19a.66.66,0,0,1,.67-.72c.24,0,.48,0,.71,0a.89.89,0,0,0,.94-.9A.87.87,0,0,0,8.8,5H5.61c-.35,0-.78,0-.87-.36a3.1,3.1,0,0,1,0-1.25c0-.13.32-.31.49-.31,1.45,0,2.9-.06,4.35,0a2.31,2.31,0,0,1,2.06,1.77A2.51,2.51,0,0,1,11,7.54Z"/>
</svg>
